<svg id="Layer_1" enable-background="new 0 0 512 512" height="512" viewBox="0 0 512 512" width="512" xmlns="http://www.w3.org/2000/svg"><g id="XMLID_1434_"><g id="XMLID_400_"><path id="XMLID_401_" d="m226 438c-2.63 0-5.21 1.07-7.07 2.93s-2.93 4.44-2.93 7.07 1.07 5.21 2.93 7.07 4.44 2.93 7.07 2.93 5.21-1.07 7.07-2.93 2.93-4.44 2.93-7.07-1.07-5.21-2.93-7.07-4.44-2.93-7.07-2.93z"/><path id="XMLID_417_" d="m512 144.25c0-49.764-40.486-90.25-90.25-90.25s-90.25 40.486-90.25 90.25c0 1.932.068 3.848.188 5.75h-304.127c-15.197 0-27.561 12.364-27.561 27.561v252.878c0 15.197 12.364 27.561 27.561 27.561h153.439c5.523 0 10-4.477 10-10s-4.477-10-10-10h-146.857l119.462-119.462 64.929 64.929c1.953 1.953 4.512 2.929 7.071 2.929s5.119-.976 7.071-2.929l65.324-65.324 119.857 119.857h-146.857c-5.523 0-10 4.477-10 10s4.477 10 10 10h153.439c15.197 0 27.561-12.364 27.561-27.561v-201.16c34.93-12.464 60-45.871 60-85.029zm-492 279.607v-238.924l119.462 119.462zm205.605-61.604-192.253-192.253h301.897c5.854 19.63 18.218 36.479 34.581 48.028zm206.395 61.604-119.858-119.857 75.996-75.996c10.394 4.186 21.737 6.496 33.612 6.496 3.466 0 6.885-.203 10.25-.585zm-10.25-209.357c-38.736 0-70.25-31.514-70.25-70.25s31.514-70.25 70.25-70.25 70.25 31.514 70.25 70.25-31.514 70.25-70.25 70.25z"/><path id="XMLID_421_" d="m421.75 102.25h-13.679c-5.523 0-10 4.477-10 10s4.477 10 10 10h3.679v54c0 5.523 4.477 10 10 10s10-4.477 10-10v-64c0-5.523-4.477-10-10-10z"/></g></g></svg>