<?xml version="1.0" encoding="iso-8859-1"?>
<!-- Generator: Adobe Illustrator 19.0.0, SVG Export Plug-In . SVG Version: 6.00 Build 0)  -->
<svg version="1.1" id="Capa_1" xmlns="http://www.w3.org/2000/svg" xmlns:xlink="http://www.w3.org/1999/xlink" x="0px" y="0px"
	 viewBox="0 0 512 512" style="enable-background:new 0 0 512 512;" xml:space="preserve">
<g>
	<g>
		<path d="M256.376,322.019c-0.014,0-0.029,0-0.043,0h-0.305c-5.523,0-10,4.477-10,10s4.477,10,10,10h0.389
			c5.523-0.023,9.981-4.52,9.958-10.042C266.352,326.468,261.88,322.019,256.376,322.019z"/>
	</g>
</g>
<g>
	<g>
		<path d="M256,170.02c-0.004,0-0.011,0-0.015,0c-29.775,0.008-53.993,24.239-53.985,54.014c0.004,14.424,5.624,27.984,15.826,38.18
			c10.199,10.193,23.753,15.806,38.172,15.806c0.004,0,0.011,0,0.016,0c29.776-0.008,53.994-24.238,53.986-54.014
			C309.992,194.233,285.771,170.02,256,170.02z M256.009,258.02c-0.003,0-0.006,0-0.01,0c-9.078,0-17.614-3.534-24.035-9.952
			c-6.423-6.42-9.962-14.957-9.964-24.039c-0.005-18.748,15.244-34.004,33.991-34.009c0.003,0,0.006,0,0.009,0
			c18.743,0,33.995,15.247,34,33.991C290.005,242.758,274.757,258.015,256.009,258.02z"/>
	</g>
</g>
<g>
	<g>
		<path d="M338.32,216.95c-1.86-1.86-4.44-2.93-7.07-2.93s-5.21,1.07-7.07,2.93c-1.86,1.86-2.93,4.44-2.93,7.07s1.07,5.21,2.93,7.07
			c1.86,1.86,4.44,2.93,7.07,2.93s5.21-1.07,7.07-2.93c1.86-1.86,2.93-4.44,2.93-7.07S340.18,218.81,338.32,216.95z"/>
	</g>
</g>
<g>
	<g>
		<path d="M187.82,216.95c-1.86-1.86-4.44-2.93-7.07-2.93s-5.21,1.07-7.07,2.93s-2.93,4.44-2.93,7.07s1.07,5.21,2.93,7.07
			c1.86,1.86,4.44,2.93,7.07,2.93s5.21-1.07,7.07-2.93s2.93-4.44,2.93-7.07C190.75,221.39,189.68,218.81,187.82,216.95z"/>
	</g>
</g>
<g>
	<g>
		<path d="M225.45,151.78c-1.87-1.86-4.44-2.93-7.08-2.93c-2.63,0-5.2,1.07-7.07,2.93c-1.86,1.86-2.92,4.44-2.92,7.07
			s1.06,5.21,2.92,7.07c1.86,1.86,4.44,2.93,7.07,2.93c2.64,0,5.21-1.07,7.08-2.93c1.86-1.86,2.92-4.44,2.92-7.07
			S227.31,153.64,225.45,151.78z"/>
	</g>
</g>
<g>
	<g>
		<path d="M300.7,282.12c-1.87-1.86-4.44-2.93-7.08-2.93c-2.63,0-5.2,1.07-7.07,2.93c-1.86,1.86-2.92,4.43-2.92,7.07
			c0,2.63,1.06,5.21,2.92,7.07c1.87,1.86,4.44,2.93,7.07,2.93c2.64,0,5.21-1.07,7.08-2.93c1.86-1.86,2.92-4.44,2.92-7.07
			S302.56,283.98,300.7,282.12z"/>
	</g>
</g>
<g>
	<g>
		<path d="M225.45,282.12c-1.87-1.86-4.44-2.93-7.08-2.93c-2.63,0-5.2,1.07-7.07,2.93c-1.86,1.86-2.92,4.43-2.92,7.07
			c0,2.63,1.06,5.21,2.92,7.07c1.87,1.86,4.44,2.93,7.07,2.93c2.64,0,5.21-1.07,7.08-2.93c1.86-1.86,2.93-4.44,2.93-7.07
			S227.31,283.98,225.45,282.12z"/>
	</g>
</g>
<g>
	<g>
		<path d="M300.7,151.78c-1.86-1.86-4.44-2.93-7.07-2.93c-2.64,0-5.21,1.07-7.08,2.93c-1.86,1.86-2.93,4.44-2.93,7.07
			s1.07,5.21,2.93,7.07c1.87,1.86,4.44,2.93,7.08,2.93c2.63,0,5.21-1.07,7.07-2.93s2.93-4.44,2.93-7.07S302.56,153.64,300.7,151.78z
			"/>
	</g>
</g>
<g>
	<g>
		<path d="M328.24,179.32c-1.86-1.86-4.44-2.92-7.07-2.92s-5.21,1.06-7.07,2.92c-1.86,1.86-2.93,4.44-2.93,7.08
			c0,2.63,1.07,5.2,2.93,7.07c1.86,1.86,4.44,2.92,7.07,2.92s5.21-1.06,7.07-2.92c1.86-1.87,2.93-4.44,2.93-7.07
			C331.17,183.76,330.1,181.19,328.24,179.32z"/>
	</g>
</g>
<g>
	<g>
		<path d="M197.9,254.57c-1.86-1.86-4.44-2.92-7.07-2.92s-5.21,1.06-7.07,2.92c-1.86,1.86-2.93,4.44-2.93,7.08
			c0,2.63,1.07,5.2,2.93,7.07c1.86,1.86,4.44,2.93,7.07,2.93s5.21-1.07,7.07-2.93c1.86-1.87,2.93-4.44,2.93-7.07
			C200.83,259.01,199.76,256.44,197.9,254.57z"/>
	</g>
</g>
<g>
	<g>
		<path d="M197.9,179.32c-1.86-1.86-4.44-2.92-7.07-2.92s-5.21,1.06-7.07,2.92c-1.86,1.87-2.93,4.44-2.93,7.08
			c0,2.63,1.07,5.2,2.93,7.07c1.86,1.86,4.44,2.92,7.07,2.92s5.21-1.06,7.07-2.92c1.86-1.87,2.93-4.44,2.93-7.07
			C200.83,183.76,199.76,181.18,197.9,179.32z"/>
	</g>
</g>
<g>
	<g>
		<path d="M328.24,254.57c-1.86-1.86-4.44-2.92-7.07-2.92s-5.21,1.06-7.07,2.92c-1.86,1.87-2.93,4.44-2.93,7.08
			c0,2.63,1.07,5.2,2.93,7.07c1.86,1.86,4.44,2.93,7.07,2.93s5.21-1.07,7.07-2.93c1.86-1.87,2.93-4.44,2.93-7.07
			C331.17,259.01,330.1,256.44,328.24,254.57z"/>
	</g>
</g>
<g>
	<g>
		<path d="M263.07,292.2c-1.86-1.86-4.44-2.93-7.07-2.93s-5.21,1.07-7.07,2.93s-2.93,4.44-2.93,7.07s1.07,5.21,2.93,7.07
			c1.86,1.86,4.44,2.93,7.07,2.93s5.21-1.07,7.07-2.93c1.86-1.86,2.93-4.44,2.93-7.07S264.93,294.06,263.07,292.2z"/>
	</g>
</g>
<g>
	<g>
		<path d="M263.07,141.7c-1.86-1.86-4.44-2.93-7.07-2.93s-5.21,1.07-7.07,2.93c-1.86,1.86-2.93,4.44-2.93,7.07s1.07,5.21,2.93,7.07
			c1.86,1.86,4.44,2.93,7.07,2.93s5.21-1.07,7.07-2.93c1.86-1.86,2.93-4.44,2.93-7.07S264.93,143.56,263.07,141.7z"/>
	</g>
</g>
<g>
	<g>
		<path d="M357.873,152.36c0,21.774,17.714,39.488,39.488,39.488h74.461c22.154,0,40.178-18.023,40.178-40.178v-27.12
			C512,70.761,468.239,27,414.449,27H97.551C43.761,27,0,70.761,0,124.551v27.12c0,22.154,18.024,40.178,40.178,40.178h74.461
			c21.773,0,39.488-17.714,39.488-39.488v-21.859c0-2.438,1.983-4.421,4.421-4.421h31.704
			c-31.503,21.217-52.264,57.216-52.253,97.971c0.002,6.362,0.533,12.64,1.529,18.794l-63.3,25.059
			C48.146,279.021,30,305.72,30,335.923V465H10c-5.523,0-10,4.477-10,10s4.477,10,10,10h492c5.523,0,10-4.477,10-10s-4.477-10-10-10
			h-20V335.803c0-30.119-18.076-56.791-46.051-67.95l-63.429-25.301c0.967-6.08,1.482-12.281,1.48-18.564
			c-0.011-40.733-20.766-76.704-52.25-97.908h31.701c2.438,0,4.421,1.983,4.421,4.421L357.873,152.36L357.873,152.36z M462,425H287
			c-5.523,0-10,4.477-10,10s4.477,10,10,10h175v20H50v-60h412V425z M354,223.994c0.01,38.778-22.9,73.981-58.366,89.684
			c-5.05,2.236-7.332,8.143-5.096,13.192c2.236,5.05,8.143,7.33,13.192,5.096c30.619-13.557,53.461-39.187,63.933-69.819
			l60.876,24.283C448.866,294.538,462,313.918,462,335.803V385H50v-49.077c0-21.946,13.185-41.346,33.59-49.424l60.843-24.086
			c10.515,30.515,33.313,56.04,63.841,69.555c1.316,0.583,2.69,0.858,4.042,0.858c3.836,0,7.497-2.22,9.149-5.955
			c2.236-5.05-0.046-10.956-5.096-13.192c-35.448-15.693-58.36-50.876-58.37-89.634c-0.007-26.177,10.18-50.79,28.684-69.304
			c17.733-17.742,41.071-27.843,66.023-28.661h6.565C311.787,127.813,353.986,171.062,354,223.994z M353.451,106.08H158.549
			c-13.466,0-24.421,10.956-24.421,24.421V133H52c-5.523,0-10,4.477-10,10s4.477,10,10,10h82.095
			c-0.342,10.449-8.926,18.849-19.455,18.849H40.178c-11.126,0-20.178-9.052-20.178-20.178v-27.12C20,81.789,54.789,47,97.551,47
			h316.898C457.211,47,492,81.789,492,124.551v27.12c0,11.126-9.052,20.178-20.178,20.178H397.36c-10.53,0-19.114-8.4-19.455-18.849
			H458c5.523,0,10-4.477,10-10s-4.477-10-10-10h-80.127v-2.499C377.873,117.036,366.917,106.08,353.451,106.08z"/>
	</g>
</g>
<g>
	<g>
		<path d="M256.07,427.93c-1.86-1.86-4.44-2.93-7.07-2.93s-5.21,1.07-7.07,2.93S239,432.37,239,435s1.07,5.21,2.93,7.07
			c1.86,1.86,4.44,2.93,7.07,2.93s5.21-1.07,7.07-2.93S259,437.63,259,435S257.93,429.79,256.07,427.93z"/>
	</g>
</g>
<g>
</g>
<g>
</g>
<g>
</g>
<g>
</g>
<g>
</g>
<g>
</g>
<g>
</g>
<g>
</g>
<g>
</g>
<g>
</g>
<g>
</g>
<g>
</g>
<g>
</g>
<g>
</g>
<g>
</g>
</svg>
